#!OML:ASF I:\Actors\actors\Patient Classification 1\Patient 1\Session 1\Subject1.ASF
:FULLY-SPECIFIED
:DEGREES
423
root -0.0270111 17.5792 8.56759 8.03372 3.29441 -7.43057
lowerback 2.29734 4.38466 8.58801
upperback -1.35629 6.11133 -1.58154
thorax -1.63271 2.93666 -6.6168
lowerneck 4.71029 9.57666 7.87813
upperneck -12.8927 14.6703 6.54016
head -4.64319 6.49616 -0.00708949
rclavicle 1.83876e-014 3.18055e-015
rhumerus -36.4165 18.6876 -72.233
rradius 148.26
rwrist -30.5038
rhand 66.1696 -55.7016
rfingers 7.12502
rthumb 74.7385 -0.619461
lclavicle 1.83876e-014 3.18055e-015
lhumerus -29.9798 -44.0414 78.0499
lradius 145.507
lwrist 25.1516
lhand 11.5511 -36.1142
lfingers 7.12502
lthumb 36.596 -9.94633
rfemur -3.66563 21.311 24.8084
rtibia 6.87485
rfoot -15.582 -26.6491
rtoes 1.91158
lfemur -1.29459 -30.1699 -8.52097
ltibia 0.278556
lfoot -9.90168 36.3136
ltoes -8.43066
424
root -0.0368016 17.5762 8.54842 8.06031 3.61327 -7.4714
lowerback 3.396 4.65534 8.86444
upperback -1.21005 6.5712 -1.95776
thorax -1.94194 3.15149 -7.26472
lowerneck 5.30308 8.77348 7.34144
upperneck -15.4438 14.019 7.07862
head -5.62373 5.99127 0.146633
rclavicle -5.00937e-014 4.77083e-015
rhumerus -40.5256 11.1091 -74.6557
rradius 148.831
rwrist -28.8787
rhand 68.7769 -56.1372
rfingers 7.12502
rthumb 74.0787 7.99749
lclavicle -5.00937e-014 4.77083e-015
lhumerus -32.1415 -40.7631 81.1421
lradius 145.867
lwrist 22.8243
lhand 14.0431 -36.4119
lfingers 7.12502
lthumb 38.9502 -10.8776
rfemur -3.92364 20.9965 24.8322
rtibia 7.1455
rfoot -15.6756 -26.608
rtoes 1.91012
lfemur -1.71405 -29.9578 -8.22136
ltibia 0.484187
lfoot -9.63275 35.8651
ltoes -9.35277
425
root -0.0461061 17.5713 8.52742 8.11717 3.9921 -7.73578
lowerback 3.9757 4.6824 9.01871
upperback -0.994392 6.65981 -1.94682
thorax -2.00901 3.1975 -7.38569
lowerneck 5.56179 8.31148 7.25407
upperneck -16.2472 13.5412 7.20133
head -5.93763 5.69576 0.18858
rclavicle 5.58585e-014 -4.77083e-015
rhumerus -43.4613 7.47768 -77.4948
rradius 148.911
rwrist -29.2923
rhand 64.7878 -56.6347
rfingers 7.12502
rthumb 74.9203 -6.60635
lclavicle 5.58585e-014 -4.77083e-015
lhumerus -34.3073 -38.4111 84.2043
lradius 145.666
lwrist 21.2308
lhand 15.8119 -37.1233
lfingers 7.12502
lthumb 40.6153 -12.0858
rfemur -4.2192 20.7513 25.1076
rtibia 7.37111
rfoot -15.722 -26.7138
rtoes 1.83707
lfemur -2.21969 -29.8491 -7.59779
ltibia 0.683606
lfoot -9.46369 35.4877
ltoes -10.0679
426
root -0.0512933 17.5654 8.50897 8.22243 4.47082 -8.05869
lowerback 3.90715 4.56197 9.05129
upperback -0.645207 6.48458 -1.69069
thorax -1.66406 3.1405 -7.10347
lowerneck 5.78926 8.1101 7.16538
upperneck -16.0501 13.2638 7.24505
head -5.92022 5.56685 0.225737
rclavicle 8.94531e-015 3.18055e-015
rhumerus -45.0245 6.17066 -80.2114
rradius 148.33
rwrist -29.8996
rhand 64.4201 -56.9609
rfingers 7.12502
rthumb 74.9482 -8.29465
lclavicle 8.94531e-015 3.18055e-015
lhumerus -35.7149 -37.6486 86.6093
lradius 144.925
lwrist 21.2263
lhand 17.3043 -37.253
lfingers 7.12502
lthumb 42.0161 -12.6683
rfemur -4.54356 20.5047 25.4227
rtibia 7.5599
rfoot -15.7963 -26.92
rtoes 1.77601
lfemur -2.81337 -29.9347 -6.88499
ltibia 0.890364
lfoot -9.3873 35.2231
ltoes -10.4142
427
root -0.0501833 17.5596 8.49606 8.35127 4.93708 -8.31096
lowerback 3.30316 4.31986 8.87111
upperback -0.185841 6.08302 -1.29044
thorax -0.981782 2.99169 -6.49588
lowerneck 5.95843 8.21863 6.95421
upperneck -15.0618 13.287 7.31079
head -5.64996 5.63961 0.292258
rclavicle -2.93207e-014 -1.19271e-014
rhumerus -44.5084 8.04201 -81.8911
rradius 147.472
rwrist -30.391
rhand 63.8706 -57.0183
rfingers 7.12502
rthumb 74.9736 -10.3952
lclavicle -2.93207e-014 -1.19271e-014
lhumerus -36.4016 -38.7349 88.1471
lradius 144.092
lwrist 22.7661
lhand 18.5084 -36.8969
lfingers 7.12502
lthumb 43.1431 -12.7017
rfemur -4.82086 20.2341 25.6269
rtibia 7.65824
rfoot -15.8911 -27.0799
rtoes 1.87925
lfemur -3.36394 -30.0756 -6.31826
ltibia 1.06551
lfoot -9.25193 35.0258
ltoes -10.6929
428
root -0.0460164 17.5557 8.48707 8.43216 5.23767 -8.4343
lowerback 2.94655 4.20218 8.98869
upperback 0.0437781 5.88684 -1.23914
thorax -0.570307 2.92133 -6.46248
lowerneck 5.86909 8.39453 7.31796
upperneck -13.216 13.3327 7.40244
head -5.03818 5.75635 0.318631
rclavicle -1.59028e-015 -2.38542e-014
rhumerus -43.6145 10.1615 -83.0469
rradius 146.89
rwrist -31.3534
rhand 63.9762 -59.5478
rfingers 7.12502
rthumb 74.9702 -12.5315
lclavicle -1.59028e-015 -2.38542e-014
lhumerus -36.3582 -41.3445 88.2343
lradius 143.311
lwrist 24.6584
lhand 19.2556 -35.8915
lfingers 7.12502
lthumb 43.841 -11.9496
rfemur -4.96469 20.066 25.6947
rtibia 7.64722
rfoot -15.8846 -27.1833
rtoes 1.8834
lfemur -3.70956 -30.2096 -6.02218
ltibia 1.16969
lfoot -9.1304 34.9223
ltoes -10.8513
429
root -0.0421067 17.555 8.477 8.43919 5.24781 -8.36723
lowerback 2.51213 4.03617 8.72692
upperback 0.32888 5.60482 -1.1388
thorax -0.114378 2.81175 -6.16111
lowerneck 5.73653 8.80738 7.99609
upperneck -10.568 13.5711 6.96775
head -4.53249 6.0427 0.22753
rclavicle 2.32578e-014 -2.94201e-014
rhumerus -41.6583 13.1811 -82.7851
rradius 146.193
rwrist -31.9784
rhand 65.2913 -60.7891
rfingers 7.12502
rthumb 74.8681 -8.90551
lclavicle 2.32578e-014 -2.94201e-014
lhumerus -35.5393 -43.9675 87.1616
lradius 142.745
lwrist 26.229
lhand 18.7108 -34.956
lfingers 7.12502
lthumb 43.3322 -10.8285
rfemur -5.02794 19.9849 25.5611
rtibia 7.66409
rfoot -15.7964 -27.1306
rtoes 1.71559
lfemur -3.8127 -30.2172 -6.08831
ltibia 1.25245
lfoot -9.07902 34.895
ltoes -10.9199
430
root -0.0382825 17.5581 8.465 8.37173 4.92876 -8.27401
lowerback 2.92184 4.09786 9.05268
upperback 0.0773136 5.7435 -1.53635
thorax -0.509367 2.85516 -6.80665
lowerneck 5.59008 8.9993 9.46663
upperneck -7.69942 13.5541 6.61796
head -3.32882 6.18934 -0.0147131
rclavicle -5.02925e-014 -6.36111e-015
rhumerus -40.1399 15.4977 -82.043
rradius 145.606
rwrist -31.8614
rhand 67.3592 -61.1382
rfingers 7.12502
rthumb 74.487 -1.83002
lclavicle -5.02925e-014 -6.36111e-015
lhumerus -34.5431 -47.5854 85.024
lradius 142.424
lwrist 27.1267
lhand 16.5331 -34.2896
lfingers 7.12502
lthumb 41.2927 -9.46693
rfemur -5.04565 20.0284 25.4137
rtibia 7.76465
rfoot -15.7716 -26.8776
rtoes 1.66751
lfemur -3.64284 -30.0377 -6.32343
ltibia 1.26099
lfoot -9.07098 34.9589
ltoes -10.8568
431
root -0.0316978 17.5644 8.45249 8.24208 4.39388 -8.28282
lowerback 3.02735 4.17249 9.23268
upperback -0.0798782 5.86449 -1.69522
thorax -0.675889 2.90179 -7.0916
lowerneck 5.46874 9.42712 10.8622
upperneck -4.49769 13.8145 6.15298
head -2.06805 6.51624 -0.247962
rclavicle 3.3197e-014 -3.18055e-015
rhumerus -38.297 18.3149 -80.5256
rradius 144.949
rwrist -31.9259
rhand 68.5191 -61.4515
rfingers 7.12502
rthumb 74.1614 1.8248
lclavicle 3.3197e-014 -3.18055e-015
lhumerus -32.9504 -50.7525 82.5519
lradius 142.12
lwrist 27.062
lhand 13.4455 -34.1193
lfingers 7.12502
lthumb 38.3865 -8.42632
rfemur -4.9783 20.2674 25.4089
rtibia 7.83311
rfoot -15.6777 -26.6062
rtoes 1.48983
lfemur -3.25242 -29.7622 -6.5311
ltibia 1.14902
lfoot -9.15673 35.1173
ltoes -10.5435
432
root -0.0190929 17.573 8.44255 8.08506 3.80629 -8.25745
lowerback 2.74246 4.18817 9.23443
upperback -0.153826 5.86157 -1.63721
thorax -0.600158 2.90127 -7.01
lowerneck 5.40138 10.0448 11.6347
upperneck -0.877848 14.3068 6.34375
head -0.824855 6.98511 -0.153615
rclavicle -1.8487e-014 -2.78299e-014
rhumerus -35.8945 22.1189 -78.137
rradius 144.31
rwrist -32.3279
rhand 68.6966 -61.4719
rfingers 7.12502
rthumb 74.1049 2.39639
lclavicle -1.8487e-014 -2.78299e-014
lhumerus -31.443 -53.1661 80.4041
lradius 141.844
lwrist 26.7695
lhand 10.9409 -34.6276
lfingers 7.12502
lthumb 36.0182 -8.31552
rfemur -4.79898 20.5829 25.3796
rtibia 7.76602
rfoot -15.4878 -26.4084
rtoes 1.37597
lfemur -2.78335 -29.477 -6.84579
ltibia 1.03647
lfoot -9.3135 35.2916
ltoes -10.1784
433
root -0.00203097 17.5829 8.43745 7.95354 3.28885 -8.15176
lowerback 2.22749 4.16028 9.18217
upperback -0.121395 5.77228 -1.52511
thorax -0.311141 2.87206 -6.8166
lowerneck 5.02622 10.683 12.1851
upperneck 2.74111 14.7687 5.94268
head 0.458862 7.45795 -0.173344
rclavicle 2.22639e-014 -2.06736e-014
rhumerus -32.7662 26.7244 -74.9244
rradius 143.83
rwrist -32.967
rhand 68.0116 -60.0337
rfingers 7.12502
rthumb 74.3133 1.52723
lclavicle 2.22639e-014 -2.06736e-014
lhumerus -29.3396 -55.2026 77.737
lradius 141.739
lwrist 27.3789
lhand 9.32973 -34.907
lfingers 7.12502
lthumb 34.4903 -8.23345
rfemur -4.60438 20.8223 25.2542
rtibia 7.65099
rfoot -15.2864 -26.2545
rtoes 1.27255
lfemur -2.37476 -29.3203 -7.27211
ltibia 1.00409
lfoot -9.51435 35.5169
ltoes -9.65655
434
root 0.0147556 17.5919 8.43607 7.90814 2.86758 -8.03106
lowerback 1.57242 4.14092 9.02561
upperback 0.0726643 5.672 -1.37512
thorax 0.209854 2.85357 -6.50705
lowerneck 3.72975 11.1803 12.7124
upperneck 5.99048 14.9878 5.11083
head 1.85165 7.78568 -0.275043
rclavicle 3.18055e-014 -6.36111e-015
rhumerus -29.173 30.9955 -71.1137
rradius 143.485
rwrist -33.4653
rhand 67.8013 -58.5046
rfingers 7.12502
rthumb 74.372 2.33571
lclavicle 3.18055e-014 -6.36111e-015
lhumerus -25.8263 -56.9185 73.7201
lradius 141.852
lwrist 28.7435
lhand 8.04939 -34.6786
lfingers 7.12502
lthumb 33.274 -7.73661
rfemur -4.51726 21.0248 25.0866
rtibia 7.57691
rfoot -15.0906 -26.153
rtoes 0.940333
lfemur -2.11259 -29.2553 -7.64222
ltibia 0.994772
lfoot -9.72872 35.763
ltoes -9.05017
435
root 0.0288087 17.5979 8.43793 7.9324 2.51671 -7.90898
lowerback 1.66133 4.19335 9.06883
upperback -0.302269 5.76686 -1.45658
thorax -0.201951 2.86803 -6.64176
lowerneck 2.86004 11.4455 13.4269
upperneck 8.61486 15.0607 4.47158
head 3.03247 7.98608 -0.392695
rclavicle -1.85864e-014 7.95139e-015
rhumerus -27.0873 34.2283 -68.2059
rradius 143.317
rwrist -33.4275
rhand 69.6795 -58.6306
rfingers 7.12502
rthumb 73.761 8.43571
lclavicle -1.85864e-014 7.95139e-015
lhumerus -23.4217 -58.7733 70.4017
lradius 142.116
lwrist 29.7232
lhand 7.13926 -34.7815
lfingers 7.12502
lthumb 32.4082 -7.65829
rfemur -4.48517 21.2427 24.8875
rtibia 7.46538
rfoot -14.948 -26.0792
rtoes 0.856829
lfemur -1.94494 -29.1933 -7.94197
ltibia 0.948615
lfoot -9.87579 35.9853
ltoes -8.75195
